<?xml version="1.0" encoding="UTF-8" standalone="no"?>
<!-- Created with Inkscape (http://www.inkscape.org/) -->

<svg
   xmlns:dc="http://purl.org/dc/elements/1.1/"
   xmlns:cc="http://creativecommons.org/ns#"
   xmlns:rdf="http://www.w3.org/1999/02/22-rdf-syntax-ns#"
   xmlns:svg="http://www.w3.org/2000/svg"
   xmlns="http://www.w3.org/2000/svg"
   xmlns:sodipodi="http://sodipodi.sourceforge.net/DTD/sodipodi-0.dtd"
   xmlns:inkscape="http://www.inkscape.org/namespaces/inkscape"
   width="128"
   height="128"
   viewBox="0 0 128 128"
   id="svg4462"
   version="1.1"
   inkscape:version="0.91 r13725"
   sodipodi:docname="nitrogeno.svg"
   inkscape:export-filename="/home/hsn6/trans/Elementoj/nitrogeno.png"
   inkscape:export-xdpi="90"
   inkscape:export-ydpi="90">
  <defs
     id="defs4464" />
  <sodipodi:namedview
     id="base"
     pagecolor="#ffffff"
     bordercolor="#666666"
     borderopacity="1.0"
     inkscape:pageopacity="0.0"
     inkscape:pageshadow="2"
     inkscape:zoom="1.4"
     inkscape:cx="14.126667"
     inkscape:cy="122.53391"
     inkscape:document-units="px"
     inkscape:current-layer="g5042"
     showgrid="false"
     units="px"
     inkscape:window-width="1024"
     inkscape:window-height="744"
     inkscape:window-x="0"
     inkscape:window-y="24"
     inkscape:window-maximized="1" />
  <metadata
     id="metadata4467">
    <rdf:RDF>
      <cc:Work
         rdf:about="">
        <dc:format>image/svg+xml</dc:format>
        <dc:type
           rdf:resource="http://purl.org/dc/dcmitype/StillImage" />
        <dc:title></dc:title>
      </cc:Work>
    </rdf:RDF>
  </metadata>
  <g
     inkscape:label="Tavolo 1"
     inkscape:groupmode="layer"
     id="layer1"
     transform="translate(0,-924.36214)">
    <g
       id="g5042"
       transform="matrix(0.64914741,0,0,0.64914741,-61.10902,413.51653)">
      <path
         inkscape:connector-curvature="0"
         id="path132"
         style="fill:#000000;fill-opacity:1;fill-rule:nonzero;stroke:none"
         d="m 251.06821,830.30985 13.4875,-10.5988 c -1.5525,-1.7837 -3.17625,-3.51 -4.8575,-5.1737 l -11.43875,12.7737 c 0.965,0.9725 1.89625,1.9763 2.80875,2.9988" />
      <path
         inkscape:connector-curvature="0"
         id="path134"
         style="fill:#000000;fill-opacity:1;fill-rule:nonzero;stroke:none"
         d="m 259.20696,841.21985 15.12375,-8.095 c -1.22375,-2.03 -2.52,-4.0125 -3.88875,-5.94 l -13.49125,10.6 c 0.78125,1.125 1.53625,2.2675 2.25625,3.435" />
      <path
         inkscape:connector-curvature="0"
         id="path136"
         style="fill:#000000;fill-opacity:1;fill-rule:nonzero;stroke:none"
         d="m 229.82321,813.45605 9.04375,-14.5612 c -2.0675,-1.1488 -4.1775,-2.2238 -6.33375,-3.22 l -6.38,15.9225 c 1.23625,0.59 2.46625,1.2062 3.67,1.8587" />
      <path
         inkscape:connector-curvature="0"
         id="path138"
         style="fill:#000000;fill-opacity:1;fill-rule:nonzero;stroke:none"
         d="m 241.16946,820.96985 11.445,-12.7813 c -1.83625,-1.4887 -3.73125,-2.9112 -5.67875,-4.2625 l -9.05,14.5775 c 1.115,0.7938 2.21125,1.6163 3.28375,2.4663" />
      <path
         inkscape:connector-curvature="0"
         id="path140"
         style="fill:#000000;fill-opacity:1;fill-rule:nonzero;stroke:none"
         d="m 268.31071,862.41485 c 1.6525,6.32 2.54375,12.9475 2.54375,19.7812 0,43.0775 -35.0475,78.1238 -78.125,78.1238 -43.08125,0 -78.1275,-35.0463 -78.1275,-78.1238 0,-43.0787 35.04625,-78.125 78.1275,-78.125 3.85375,0 7.64125,0.2913 11.34625,0.8338 l 3.52375,-16.7925 c -4.84625,-0.7638 -9.81375,-1.1638 -14.87,-1.1638 -52.52,0 -95.248746,42.7263 -95.248746,95.2475 0,52.5175 42.728746,95.2463 95.248746,95.2463 52.52,0 95.24625,-42.7288 95.24625,-95.2463 0,-8.695 -1.1775,-17.1187 -3.37125,-25.1262 l -16.29375,5.345" />
      <path
         inkscape:connector-curvature="0"
         id="path142"
         style="fill:#000000;fill-opacity:1;fill-rule:nonzero;stroke:none"
         d="m 263.70321,849.60355 c 0.57125,1.2425 1.11375,2.5025 1.61875,3.7788 l 16.3125,-5.3488 c -0.85375,-2.2175 -1.7875,-4.395 -2.8,-6.5287 l -15.13125,8.0987" />
      <path
         inkscape:connector-curvature="0"
         id="path144"
         style="fill:#000000;fill-opacity:1;fill-rule:nonzero;stroke:none"
         d="m 213.38446,806.86355 c 1.3275,0.3638 2.64125,0.7638 3.93875,1.1963 l 6.38625,-15.935 c -2.2325,-0.77 -4.4975,-1.4588 -6.80125,-2.0625 l -3.52375,16.8012" />
      <g
         transform="matrix(1.25,0,0,-1.25,-605.71429,1380.9335)"
         id="g146"
         style="fill:#000000">
        <text
           id="text148"
           style="font-variant:normal;font-weight:bold;font-size:30.0904007px;font-family:Exo;-inkscape-font-specification:Exo-Bold;writing-mode:lr-tb;fill:#000000;fill-opacity:1;fill-rule:nonzero;stroke:none"
           transform="matrix(1,0,0,-1,589.267,408.277)">
          <tspan
             id="tspan152"
             sodipodi:role="line"
             x="0"
             y="0">N<tspan
   style="font-size:80.10507197%;baseline-shift:sub;fill:#000000"
   id="tspan5059">2</tspan>
O</tspan>
        </text>
      </g>
      <path
         inkscape:connector-curvature="0"
         id="path154"
         style="fill:#000000;fill-opacity:1;fill-rule:nonzero;stroke:none"
         d="m 209.97321,972.99735 c -3.19375,8.7787 -12.90125,13.3037 -21.68,10.1075 -8.77625,-3.1925 -13.3025,-12.8988 -10.1075,-21.6763 3.19625,-8.7787 74.51125,-155.27 74.51125,-155.27 0,0 -39.53,158.0613 -42.72375,166.8388" />
    </g>
  </g>
</svg>
