<?xml version="1.0" encoding="UTF-8" standalone="no"?>
<!-- Created with Inkscape (http://www.inkscape.org/) -->

<svg
   xmlns:dc="http://purl.org/dc/elements/1.1/"
   xmlns:cc="http://creativecommons.org/ns#"
   xmlns:rdf="http://www.w3.org/1999/02/22-rdf-syntax-ns#"
   xmlns:svg="http://www.w3.org/2000/svg"
   xmlns="http://www.w3.org/2000/svg"
   xmlns:sodipodi="http://sodipodi.sourceforge.net/DTD/sodipodi-0.dtd"
   xmlns:inkscape="http://www.inkscape.org/namespaces/inkscape"
   width="128"
   height="128"
   viewBox="0 0 128 128"
   id="svg5007"
   version="1.1"
   inkscape:version="0.91 r13725"
   sodipodi:docname="tempo1.svg"
   inkscape:export-filename="/home/hsn6/trans/Elementoj/tempo1.png"
   inkscape:export-xdpi="90"
   inkscape:export-ydpi="90">
  <defs
     id="defs5009" />
  <sodipodi:namedview
     id="base"
     pagecolor="#ffffff"
     bordercolor="#666666"
     borderopacity="1.0"
     inkscape:pageopacity="0.0"
     inkscape:pageshadow="2"
     inkscape:zoom="1.4"
     inkscape:cx="104.07784"
     inkscape:cy="132.97678"
     inkscape:document-units="px"
     inkscape:current-layer="layer1"
     showgrid="false"
     units="px"
     inkscape:window-width="1024"
     inkscape:window-height="744"
     inkscape:window-x="0"
     inkscape:window-y="24"
     inkscape:window-maximized="1" />
  <metadata
     id="metadata5012">
    <rdf:RDF>
      <cc:Work
         rdf:about="">
        <dc:format>image/svg+xml</dc:format>
        <dc:type
           rdf:resource="http://purl.org/dc/dcmitype/StillImage" />
        <dc:title />
      </cc:Work>
    </rdf:RDF>
  </metadata>
  <g
     inkscape:label="Tavolo 1"
     inkscape:groupmode="layer"
     id="layer1"
     transform="translate(0,-924.36216)">
    <g
       id="g5563"
       transform="matrix(0.79830336,0,0,0.79830336,4.6974665,200.71785)">
      <path
         inkscape:connector-curvature="0"
         id="path146"
         style="fill:#181518;fill-opacity:1;fill-rule:nonzero;stroke:none"
         d="m 74.285714,1051.4566 c -26.8225,0 -48.645,-21.8237 -48.645,-48.645 0,-26.82125 21.8225,-48.645 48.645,-48.645 26.822496,0 48.646246,21.82375 48.646246,48.645 0,26.8213 -21.82375,48.645 -48.646246,48.645 z m 44.297496,-94.80125 7.00625,-9.895 c 1.2725,-1.79625 0.8475,-4.2825 -0.9475,-5.55375 l -10.56625,-7.48375 c -1.79625,-1.27 -4.28375,-0.845 -5.55625,0.95125 l -7.18125,10.14125 c -5.299996,-2.48375 -10.991246,-4.2625 -16.954996,-5.21 l 0,-4.125 c 0,-2.64 2.16,-4.8 4.8,-4.8 l 2.65,0 c 2.64125,0 4.80125,-2.16125 4.80125,-4.79875 l 0,-14.60125 c 0,-2.64 -2.16,-4.8025 -4.80125,-4.8025 l -35.09625,0 c -2.63875,0 -4.79875,2.1625 -4.79875,4.8025 l 0,14.60125 c 0,2.6375 2.16,4.79875 4.79875,4.79875 l 2.65125,0 c 2.64,0 4.80125,2.16 4.80125,4.8 l 0,4.125 c -6.395,1.01625 -12.4725,2.985 -18.09125,5.7525 l -7.115,-10.04625 c -1.27,-1.79625 -3.75625,-2.21875 -5.5525,-0.9475 l -10.56625,7.4825 c -1.7975,1.27125 -2.22125,3.7575 -0.94875,5.555 l 7.17375,10.13125 c -11.61375,11.59125 -18.81,27.61124 -18.81,45.27875 0,35.2925 28.71375,64.0063 64.00625,64.0063 35.293746,0 64.006246,-28.7138 64.006246,-64.0063 0,-18.11871 -7.56875,-34.50125 -19.70875,-46.15625" />
      <path
         inkscape:connector-curvature="0"
         id="path148"
         style="fill:#181518;fill-opacity:1;fill-rule:nonzero;stroke:none"
         d="m 74.285714,962.7016 c -0.1075,0 -0.2125,0.007 -0.31875,0.007 l 0,39.7825 40.421246,0 c -0.1725,-21.97 -18.092496,-39.79 -40.102496,-39.79" />
    </g>
    <path
       style="color:#000000;clip-rule:nonzero;display:inline;overflow:visible;visibility:visible;opacity:1;isolation:auto;mix-blend-mode:normal;color-interpolation:sRGB;color-interpolation-filters:linearRGB;solid-color:#000000;solid-opacity:1;fill:#ffffff;fill-opacity:1;fill-rule:nonzero;stroke:none;stroke-width:7.14285707;stroke-linecap:butt;stroke-linejoin:bevel;stroke-miterlimit:4;stroke-dasharray:none;stroke-dashoffset:0;stroke-opacity:1;color-rendering:auto;image-rendering:auto;shape-rendering:auto;text-rendering:auto;enable-background:accumulate"
       d="M 58.332757,115.37898 C 44.830459,113.25072 32.87144,103.78687 27.97069,91.351737 25.565013,85.247591 24.663692,77.526145 25.605207,71.08709 28.542028,51.00205 47.062918,36.499431 67.508882,38.274789 c 9.457479,0.821208 17.747872,4.890695 24.629993,12.090065 5.283397,5.526951 8.379855,11.429599 9.894295,18.861102 4.10553,20.14616 -8.342188,40.002124 -28.386098,45.280084 -3.992515,1.05131 -11.476279,1.47789 -15.314315,0.87294 z M 95.981061,75.43897 c 0,-2.098925 -1.122679,-7.357008 -2.118282,-9.921002 C 89.451568,54.157688 78.616847,45.95201 66.963204,45.145568 l -3.125,-0.216253 0,15.767151 0,15.76715 16.071428,0 16.071429,0 0,-1.024646 z"
       id="path4136"
       inkscape:connector-curvature="0"
       transform="translate(0,924.36216)" />
  </g>
</svg>
